<svg width="512" height="512" viewBox="0 0 512 512" xmlns="http://www.w3.org/2000/svg">
  <defs>
    <linearGradient id="wood3" x1="0%" y1="0%" x2="100%" y2="100%">
      <stop offset="0%" style="stop-color:#8B4513;stop-opacity:1" />
      <stop offset="30%" style="stop-color:#CD853F;stop-opacity:1" />
      <stop offset="70%" style="stop-color:#D2691E;stop-opacity:1" />
      <stop offset="100%" style="stop-color:#8B4513;stop-opacity:1" />
    </linearGradient>
    <linearGradient id="gold3" x1="0%" y1="0%" x2="100%" y2="100%">
      <stop offset="0%" style="stop-color:#FFA500;stop-opacity:1" />
      <stop offset="100%" style="stop-color:#FFD700;stop-opacity:1" />
    </linearGradient>
    <filter id="emboss">
      <feOffset dx="2" dy="2"/>
      <feGaussianBlur stdDeviation="2"/>
    </filter>
  </defs>
  
  <!-- Book base -->
  <path d="M 120 80 L 392 80 Q 412 80 412 100 L 412 412 Q 412 432 392 432 L 120 432 Q 100 432 100 412 L 100 100 Q 100 80 120 80 Z" fill="url(#wood3)" filter="url(#emboss)"/>
  <rect x="115" y="95" width="282" height="342" rx="8" fill="#F5F5DC"/>
  
  <!-- Horizontal flag strip -->
  <rect x="130" y="120" width="252" height="60" rx="5" fill="#f0f0f0"/>
  
  <!-- Korea section -->
  <rect x="135" y="125" width="58" height="50" fill="#ffffff"/>
  <circle cx="154" cy="145" r="8" fill="#ff0000"/>
  <circle cx="174" cy="155" r="8" fill="#0000ff"/>
  <text x="164" y="175" font-size="10" text-anchor="middle" fill="#000">KOR</text>
  
  <!-- USA section -->
  <rect x="198" y="125" width="58" height="50" fill="#ffffff"/>
  <rect x="198" y="125" width="58" height="4" fill="#ff0000"/>
  <rect x="198" y="133" width="58" height="4" fill="#ff0000"/>
  <rect x="198" y="141" width="58" height="4" fill="#ff0000"/>
  <rect x="198" y="125" width="20" height="20" fill="#0000ff"/>
  <text x="227" y="175" font-size="10" text-anchor="middle" fill="#000">ENG</text>
  
  <!-- China section -->
  <rect x="261" y="125" width="58" height="50" fill="#ff0000"/>
  <polygon points="280,135 290,145 280,155 270,145" fill="#ffff00"/>
  <text x="290" y="175" font-size="10" text-anchor="middle" fill="#000">中文</text>
  
  <!-- Japan section -->
  <rect x="324" y="125" width="58" height="50" fill="#ffffff"/>
  <circle cx="353" cy="150" r="12" fill="#ff0000"/>
  <text x="353" y="175" font-size="10" text-anchor="middle" fill="#000">日本</text>
  
  <!-- Main text -->
  <text x="256" y="280" font-family="Arial, sans-serif" font-size="85" font-weight="bold" text-anchor="middle" fill="url(#gold3)">성경</text>
  <text x="256" y="350" font-family="Arial, sans-serif" font-size="55" font-weight="bold" text-anchor="middle" fill="url(#gold3)">오디오</text>
</svg>